<svg width="60" height="60" viewBox="0 0 60 60" fill="none" xmlns="http://www.w3.org/2000/svg">
<path d="M32.6938 8.70003C32.4462 8.19764 32.063 7.77458 31.5874 7.47874C31.1118 7.18291 30.5629 7.02612 30.0028 7.02612C29.4427 7.02612 28.8938 7.18291 28.4183 7.47874C27.9427 7.77458 27.5594 8.19764 27.3118 8.70003L21.5218 20.43L8.57082 22.314C8.01672 22.3945 7.4962 22.6284 7.06814 22.9893C6.64008 23.3503 6.32156 23.8238 6.14863 24.3563C5.9757 24.8889 5.95524 25.4592 6.08959 26.0027C6.22393 26.5463 6.50771 27.0414 6.90882 27.432L16.2808 36.564L14.0668 49.464C13.9723 50.0157 14.034 50.5829 14.245 51.1014C14.4559 51.6198 14.8077 52.0689 15.2606 52.3979C15.7135 52.7269 16.2494 52.9226 16.8077 52.9629C17.3659 53.0032 17.9244 52.8865 18.4198 52.626L27.5698 47.814C26.7214 44.6879 26.8118 41.3813 27.8299 38.3062C28.848 35.2312 30.7486 32.5238 33.2949 30.5216C35.8412 28.5195 38.9205 27.3111 42.149 27.0471C45.3774 26.7831 48.6121 27.4751 51.4498 29.037L53.0968 27.432C53.4979 27.0414 53.7817 26.5463 53.9161 26.0027C54.0504 25.4592 54.0299 24.8889 53.857 24.3563C53.6841 23.8238 53.3656 23.3503 52.9375 22.9893C52.5094 22.6284 51.9889 22.3945 51.4348 22.314L38.4838 20.433L32.6938 8.70003ZM56.9998 43.5C56.9998 47.0805 55.5775 50.5142 53.0458 53.046C50.514 55.5777 47.0802 57 43.4998 57C39.9194 57 36.4856 55.5777 33.9539 53.046C31.4221 50.5142 29.9998 47.0805 29.9998 43.5C29.9998 39.9196 31.4221 36.4858 33.9539 33.9541C36.4856 31.4223 39.9194 30 43.4998 30C47.0802 30 50.514 31.4223 53.0458 33.9541C55.5775 36.4858 56.9998 39.9196 56.9998 43.5ZM50.5618 37.938C50.4225 37.7983 50.257 37.6875 50.0747 37.6119C49.8925 37.5363 49.6971 37.4974 49.4998 37.4974C49.3025 37.4974 49.1072 37.5363 48.9249 37.6119C48.7427 37.6875 48.5772 37.7983 48.4378 37.938L40.4998 45.879L38.5618 43.938C38.2802 43.6564 37.8981 43.4981 37.4998 43.4981C37.1015 43.4981 36.7195 43.6564 36.4378 43.938C36.1562 44.2197 35.9979 44.6017 35.9979 45C35.9979 45.3984 36.1562 45.7804 36.4378 46.062L39.4378 49.062C39.5772 49.2017 39.7427 49.3126 39.9249 49.3882C40.1072 49.4638 40.3025 49.5027 40.4998 49.5027C40.6971 49.5027 40.8925 49.4638 41.0747 49.3882C41.257 49.3126 41.4225 49.2017 41.5618 49.062L50.5618 40.062C50.7015 39.9227 50.8123 39.7572 50.888 39.5749C50.9636 39.3927 51.0025 39.1973 51.0025 39C51.0025 38.8027 50.9636 38.6074 50.888 38.4251C50.8123 38.2429 50.7015 38.0774 50.5618 37.938Z" fill="#080687"/>
</svg>
