<?xml version="1.0" encoding="UTF-8"?>
<!DOCTYPE svg PUBLIC "-//W3C//DTD SVG 1.1//EN" "http://www.w3.org/Graphics/SVG/1.1/DTD/svg11.dtd">
<!-- Creator: CorelDRAW 2020 (64-Bit Оценочная версия) -->
<svg xmlns="http://www.w3.org/2000/svg" xml:space="preserve" width="154px" height="43px" version="1.1" style="shape-rendering:geometricPrecision; text-rendering:geometricPrecision; image-rendering:optimizeQuality; fill-rule:evenodd; clip-rule:evenodd"
viewBox="0 0 154 43"
 xmlns:xlink="http://www.w3.org/1999/xlink"
 xmlns:xodm="http://www.corel.com/coreldraw/odm/2003">
 <defs>
  <style type="text/css">
   <![CDATA[
    .fil0 {fill:white}
    .fil1 {fill:#FEFEFE;fill-rule:nonzero}
   ]]>
  </style>
 </defs>
 <g id="Слой_x0020_1">
  <metadata id="CorelCorpID_0Corel-Layer"/>
  <g id="_1770597422304">
   <g>
    <path class="fil0" d="M23.3 20.08l-3.54 -10.14 -3.74 10.14 7.28 0zm-10.53 -18.85l14.52 0 11.91 28.75 -12.36 0 -0.98 -2.85 -12.56 0 -1.06 2.85 -12.24 0 12.77 -28.75z"/>
    <path class="fil0" d="M52.74 7.41l0 6.22 6.27 0c1.7,0 2.96,-0.21 3.76,-0.64 0.8,-0.42 1.2,-1.25 1.2,-2.49 0,-1.24 -0.4,-2.07 -1.2,-2.48 -0.8,-0.41 -2.06,-0.61 -3.76,-0.61l-6.27 0zm-11.42 -6.18l22.08 0c4.25,0 7.49,0.82 9.72,2.46 2.22,1.63 3.33,3.92 3.33,6.85 0,2.95 -1.11,5.25 -3.33,6.89 -2.23,1.64 -5.47,2.45 -9.72,2.45l-10.66 0 0 10.1 -11.42 0 0 -28.75z"/>
    <polygon class="fil0" points="80.31,1.23 111.59,1.23 111.59,8.28 91.74,8.28 91.74,11.72 107.8,11.72 107.8,18.77 91.74,18.77 91.74,22.58 112.56,22.58 112.56,29.98 80.31,29.98 "/>
    <path class="fil0" d="M140.87 13.31c-0.19,-1.8 -0.84,-3.16 -1.94,-4.08 -1.09,-0.92 -2.6,-1.39 -4.53,-1.39 -2.47,0 -4.34,0.66 -5.63,1.98 -1.29,1.32 -1.93,3.25 -1.93,5.79 0,2.53 0.64,4.45 1.93,5.76 1.29,1.31 3.16,1.96 5.63,1.96 1.76,0 3.19,-0.38 4.27,-1.15 1.08,-0.76 1.8,-1.94 2.16,-3.52l13.17 0c-0.6,3.96 -2.53,6.96 -5.81,9.01 -3.28,2.04 -7.88,3.07 -13.79,3.07 -6.61,0 -11.58,-1.28 -14.88,-3.83 -3.31,-2.54 -4.96,-6.31 -4.96,-11.3 0,-4.99 1.65,-8.76 4.96,-11.31 3.3,-2.55 8.27,-3.82 14.88,-3.82 6.21,0 10.96,1.11 14.25,3.32 3.3,2.22 5.05,5.39 5.27,9.51l-13.05 0z"/>
   </g>
   <g>
   </g>
  </g>
  <path class="fil1" d="M5.81 42.37l-0.5 -1.52 -3.13 0 -0.51 1.52 -1.67 0 2.65 -7.67 2.36 0 2.66 7.67 -1.86 0zm-2.04 -6.27l-1.2 3.58 2.36 0 -1.16 -3.58z"/>
  <path id="1" class="fil1" d="M10.31 36.41l0 3.88c0,0.32 0.07,0.57 0.21,0.74 0.14,0.16 0.36,0.25 0.65,0.25 0.27,0 0.54,-0.1 0.8,-0.3 0.26,-0.2 0.54,-0.47 0.82,-0.8l0 -3.77 1.68 0 0 5.96 -1.45 0 -0.04 -0.88c-0.15,0.15 -0.3,0.29 -0.45,0.41 -0.15,0.13 -0.31,0.23 -0.49,0.32 -0.17,0.09 -0.37,0.16 -0.57,0.21 -0.21,0.05 -0.44,0.07 -0.7,0.07 -0.35,0 -0.66,-0.05 -0.93,-0.15 -0.27,-0.1 -0.49,-0.24 -0.67,-0.43 -0.18,-0.18 -0.31,-0.4 -0.4,-0.65 -0.09,-0.26 -0.14,-0.55 -0.14,-0.86l0 -4 1.68 0z"/>
  <path id="2" class="fil1" d="M22.12 42.31c-0.3,0.06 -0.6,0.1 -0.91,0.14 -0.31,0.03 -0.6,0.05 -0.87,0.05 -0.46,0 -0.86,-0.04 -1.19,-0.12 -0.33,-0.08 -0.6,-0.21 -0.82,-0.38 -0.22,-0.17 -0.38,-0.38 -0.48,-0.64 -0.1,-0.26 -0.15,-0.57 -0.15,-0.93l0 -2.9 -1.87 0 0 -1.12 1.87 0 0 -1.53 1.71 -0.38 0 1.91 2.71 0 0 1.12 -2.71 0 0 2.8c0,0.34 0.09,0.59 0.27,0.77 0.19,0.17 0.49,0.26 0.92,0.26 0.28,0 0.55,-0.02 0.81,-0.06 0.26,-0.04 0.5,-0.08 0.71,-0.13l0 1.14z"/>
  <path id="3" class="fil1" d="M30.37 39.34c0,0.47 -0.08,0.9 -0.24,1.29 -0.15,0.38 -0.37,0.72 -0.66,1 -0.3,0.27 -0.66,0.49 -1.08,0.64 -0.43,0.15 -0.91,0.23 -1.45,0.23 -0.52,0 -0.98,-0.06 -1.39,-0.2 -0.41,-0.12 -0.75,-0.32 -1.03,-0.57 -0.29,-0.26 -0.51,-0.58 -0.66,-0.96 -0.15,-0.39 -0.22,-0.84 -0.22,-1.35 0,-0.47 0.08,-0.9 0.23,-1.29 0.16,-0.39 0.39,-0.72 0.68,-0.99 0.3,-0.27 0.66,-0.49 1.08,-0.64 0.43,-0.15 0.91,-0.22 1.44,-0.22 0.52,0 0.99,0.06 1.39,0.19 0.41,0.14 0.75,0.33 1.04,0.59 0.28,0.25 0.5,0.57 0.65,0.96 0.14,0.38 0.22,0.82 0.22,1.32zm-1.74 0.03c0,-0.61 -0.14,-1.08 -0.41,-1.39 -0.27,-0.31 -0.67,-0.46 -1.2,-0.46 -0.3,0 -0.54,0.04 -0.75,0.14 -0.21,0.1 -0.37,0.23 -0.51,0.4 -0.13,0.17 -0.22,0.37 -0.29,0.6 -0.06,0.23 -0.09,0.47 -0.09,0.73 0,0.62 0.14,1.09 0.44,1.4 0.29,0.31 0.69,0.47 1.2,0.47 0.28,0 0.52,-0.05 0.72,-0.14 0.21,-0.1 0.38,-0.23 0.5,-0.4 0.13,-0.17 0.23,-0.37 0.29,-0.6 0.06,-0.23 0.1,-0.48 0.1,-0.75z"/>
  <path id="4" class="fil1" d="M45.75 37.14c0,0.4 -0.07,0.77 -0.23,1.11 -0.16,0.34 -0.39,0.63 -0.69,0.87 -0.31,0.25 -0.69,0.44 -1.15,0.58 -0.46,0.14 -0.99,0.2 -1.59,0.2l-0.86 0 0 2.47 -1.7 0 0 -7.67 2.62 0c0.59,0 1.1,0.06 1.55,0.17 0.44,0.1 0.82,0.26 1.12,0.47 0.31,0.21 0.54,0.46 0.7,0.76 0.15,0.31 0.23,0.65 0.23,1.04zm-1.77 0.1c0,-0.2 -0.03,-0.38 -0.11,-0.55 -0.08,-0.16 -0.19,-0.31 -0.34,-0.42 -0.16,-0.12 -0.35,-0.21 -0.59,-0.27 -0.23,-0.06 -0.51,-0.09 -0.83,-0.09l-0.88 0 0 2.79 0.94 0c0.29,0 0.55,-0.03 0.77,-0.1 0.23,-0.07 0.42,-0.16 0.57,-0.29 0.16,-0.13 0.27,-0.29 0.35,-0.46 0.08,-0.18 0.12,-0.39 0.12,-0.61z"/>
  <path id="5" class="fil1" d="M51.66 42.37l-0.05 -0.78c-0.15,0.13 -0.3,0.25 -0.46,0.36 -0.16,0.12 -0.33,0.21 -0.53,0.29 -0.19,0.08 -0.4,0.15 -0.63,0.19 -0.22,0.05 -0.47,0.07 -0.74,0.07 -0.36,0 -0.67,-0.04 -0.94,-0.13 -0.27,-0.09 -0.5,-0.22 -0.68,-0.38 -0.19,-0.16 -0.33,-0.35 -0.42,-0.58 -0.09,-0.23 -0.14,-0.48 -0.14,-0.75 0,-0.28 0.07,-0.54 0.21,-0.78 0.14,-0.24 0.35,-0.44 0.64,-0.61 0.29,-0.18 0.64,-0.31 1.07,-0.41 0.43,-0.1 0.93,-0.14 1.51,-0.14l0.91 0 0 -0.36c0,-0.15 -0.02,-0.29 -0.07,-0.42 -0.05,-0.12 -0.13,-0.22 -0.24,-0.31 -0.12,-0.09 -0.26,-0.15 -0.44,-0.2 -0.18,-0.05 -0.4,-0.07 -0.66,-0.07 -0.41,0 -0.82,0.04 -1.22,0.12 -0.4,0.08 -0.79,0.19 -1.16,0.34l0 -1.15c0.33,-0.11 0.72,-0.2 1.15,-0.28 0.44,-0.07 0.9,-0.11 1.37,-0.11 0.51,0 0.96,0.04 1.33,0.12 0.37,0.09 0.67,0.21 0.91,0.38 0.24,0.17 0.42,0.38 0.54,0.63 0.11,0.26 0.17,0.55 0.17,0.89l0 4.07 -1.43 0zm-0.25 -2.63l-1.02 0c-0.29,0 -0.53,0.02 -0.72,0.07 -0.2,0.05 -0.36,0.11 -0.48,0.19 -0.13,0.08 -0.22,0.18 -0.28,0.28 -0.05,0.11 -0.08,0.23 -0.08,0.35 0,0.24 0.09,0.42 0.27,0.55 0.19,0.13 0.44,0.19 0.75,0.19 0.23,0 0.48,-0.07 0.73,-0.22 0.25,-0.14 0.53,-0.35 0.83,-0.62l0 -0.79z"/>
  <path id="6" class="fil1" d="M59.49 38.73c0.01,-0.22 0,-0.41 -0.04,-0.57 -0.03,-0.16 -0.08,-0.29 -0.16,-0.39 -0.08,-0.1 -0.17,-0.17 -0.28,-0.22 -0.11,-0.05 -0.23,-0.07 -0.38,-0.07 -0.24,0 -0.5,0.09 -0.76,0.26 -0.26,0.18 -0.55,0.47 -0.87,0.87l0 3.76 -1.71 0 0 -5.96 1.51 0 0.07 0.88c0.11,-0.16 0.24,-0.3 0.39,-0.42 0.14,-0.12 0.3,-0.23 0.47,-0.32 0.18,-0.09 0.38,-0.15 0.59,-0.2 0.22,-0.05 0.45,-0.07 0.71,-0.07 0.35,0 0.66,0.05 0.94,0.15 0.27,0.11 0.5,0.26 0.68,0.46 0.19,0.21 0.33,0.46 0.42,0.77 0.09,0.31 0.12,0.66 0.11,1.07l-1.69 0z"/>
  <path id="7" class="fil1" d="M68.48 42.31c-0.3,0.06 -0.6,0.1 -0.91,0.14 -0.31,0.03 -0.6,0.05 -0.87,0.05 -0.46,0 -0.85,-0.04 -1.18,-0.12 -0.34,-0.08 -0.61,-0.21 -0.83,-0.38 -0.22,-0.17 -0.38,-0.38 -0.48,-0.64 -0.1,-0.26 -0.15,-0.57 -0.15,-0.93l0 -2.9 -1.87 0 0 -1.12 1.87 0 0 -1.53 1.71 -0.38 0 1.91 2.71 0 0 1.12 -2.71 0 0 2.8c0,0.34 0.09,0.59 0.28,0.77 0.18,0.17 0.49,0.26 0.92,0.26 0.27,0 0.54,-0.02 0.8,-0.06 0.26,-0.04 0.5,-0.08 0.71,-0.13l0 1.14z"/>
  <path id="8" class="fil1" d="M76.21 40.61c0,0.34 -0.09,0.63 -0.26,0.87 -0.18,0.24 -0.41,0.44 -0.71,0.59 -0.29,0.15 -0.61,0.26 -0.98,0.33 -0.37,0.07 -0.75,0.1 -1.13,0.1 -0.52,0 -0.98,-0.02 -1.39,-0.06 -0.41,-0.04 -0.8,-0.1 -1.17,-0.18l0 -1.29c0.44,0.16 0.86,0.27 1.29,0.33 0.43,0.07 0.83,0.11 1.21,0.11 0.44,0 0.77,-0.06 0.99,-0.18 0.22,-0.12 0.32,-0.28 0.32,-0.47 0,-0.09 -0.02,-0.17 -0.06,-0.25 -0.05,-0.07 -0.13,-0.14 -0.26,-0.21 -0.13,-0.07 -0.31,-0.14 -0.53,-0.21 -0.23,-0.08 -0.53,-0.16 -0.9,-0.25 -0.34,-0.08 -0.65,-0.17 -0.9,-0.28 -0.26,-0.1 -0.48,-0.22 -0.65,-0.36 -0.17,-0.14 -0.29,-0.31 -0.38,-0.49 -0.08,-0.19 -0.13,-0.4 -0.13,-0.65 0,-0.25 0.07,-0.48 0.2,-0.69 0.13,-0.22 0.32,-0.4 0.57,-0.57 0.25,-0.16 0.57,-0.29 0.95,-0.38 0.38,-0.1 0.82,-0.14 1.33,-0.14 0.44,0 0.83,0.02 1.17,0.06 0.34,0.04 0.64,0.08 0.9,0.13l0 1.16c-0.4,-0.11 -0.77,-0.18 -1.12,-0.23 -0.35,-0.04 -0.7,-0.07 -1.04,-0.07 -0.34,0 -0.62,0.06 -0.83,0.16 -0.21,0.11 -0.31,0.26 -0.31,0.44 0,0.09 0.02,0.17 0.06,0.24 0.04,0.07 0.12,0.14 0.24,0.21 0.12,0.06 0.29,0.13 0.51,0.21 0.22,0.07 0.51,0.15 0.86,0.23 0.41,0.1 0.74,0.21 1.02,0.32 0.27,0.11 0.49,0.23 0.66,0.38 0.17,0.14 0.29,0.3 0.36,0.48 0.07,0.18 0.11,0.38 0.11,0.61z"/>
  <polygon id="9" class="fil1" points="86.23,42.37 86.23,34.7 91.62,34.7 91.62,35.93 87.94,35.93 87.94,37.83 91.45,37.83 91.45,39.02 87.94,39.02 87.94,41.14 91.62,41.14 91.62,42.37 "/>
  <path id="10" class="fil1" d="M98.02 42.37l-0.05 -0.78c-0.14,0.13 -0.3,0.25 -0.46,0.36 -0.16,0.12 -0.33,0.21 -0.52,0.29 -0.2,0.08 -0.41,0.15 -0.63,0.19 -0.23,0.05 -0.48,0.07 -0.75,0.07 -0.36,0 -0.67,-0.04 -0.94,-0.13 -0.27,-0.09 -0.5,-0.22 -0.68,-0.38 -0.19,-0.16 -0.32,-0.35 -0.42,-0.58 -0.09,-0.23 -0.14,-0.48 -0.14,-0.75 0,-0.28 0.07,-0.54 0.21,-0.78 0.14,-0.24 0.35,-0.44 0.64,-0.61 0.29,-0.18 0.65,-0.31 1.07,-0.41 0.43,-0.1 0.93,-0.14 1.51,-0.14l0.91 0 0 -0.36c0,-0.15 -0.02,-0.29 -0.07,-0.42 -0.05,-0.12 -0.13,-0.22 -0.24,-0.31 -0.12,-0.09 -0.26,-0.15 -0.44,-0.2 -0.18,-0.05 -0.4,-0.07 -0.66,-0.07 -0.41,0 -0.82,0.04 -1.21,0.12 -0.41,0.08 -0.79,0.19 -1.17,0.34l0 -1.15c0.34,-0.11 0.72,-0.2 1.15,-0.28 0.44,-0.07 0.9,-0.11 1.37,-0.11 0.51,0 0.96,0.04 1.33,0.12 0.37,0.09 0.67,0.21 0.92,0.38 0.23,0.17 0.41,0.38 0.53,0.63 0.11,0.26 0.17,0.55 0.17,0.89l0 4.07 -1.43 0zm-0.25 -2.63l-1.02 0c-0.28,0 -0.53,0.02 -0.72,0.07 -0.2,0.05 -0.36,0.11 -0.48,0.19 -0.13,0.08 -0.22,0.18 -0.27,0.28 -0.06,0.11 -0.09,0.23 -0.09,0.35 0,0.24 0.09,0.42 0.27,0.55 0.19,0.13 0.44,0.19 0.75,0.19 0.24,0 0.48,-0.07 0.73,-0.22 0.25,-0.14 0.53,-0.35 0.83,-0.62l0 -0.79z"/>
  <path id="11" class="fil1" d="M107.12 40.61c0,0.34 -0.09,0.63 -0.27,0.87 -0.17,0.24 -0.41,0.44 -0.7,0.59 -0.29,0.15 -0.62,0.26 -0.99,0.33 -0.36,0.07 -0.74,0.1 -1.12,0.1 -0.52,0 -0.98,-0.02 -1.39,-0.06 -0.41,-0.04 -0.8,-0.1 -1.17,-0.18l0 -1.29c0.43,0.16 0.86,0.27 1.29,0.33 0.43,0.07 0.83,0.11 1.21,0.11 0.44,0 0.77,-0.06 0.99,-0.18 0.21,-0.12 0.32,-0.28 0.32,-0.47 0,-0.09 -0.02,-0.17 -0.07,-0.25 -0.04,-0.07 -0.13,-0.14 -0.25,-0.21 -0.13,-0.07 -0.31,-0.14 -0.54,-0.21 -0.23,-0.08 -0.53,-0.16 -0.9,-0.25 -0.34,-0.08 -0.64,-0.17 -0.9,-0.28 -0.26,-0.1 -0.47,-0.22 -0.64,-0.36 -0.17,-0.14 -0.3,-0.31 -0.38,-0.49 -0.09,-0.19 -0.13,-0.4 -0.13,-0.65 0,-0.25 0.07,-0.48 0.19,-0.69 0.13,-0.22 0.32,-0.4 0.58,-0.57 0.25,-0.16 0.57,-0.29 0.95,-0.38 0.38,-0.1 0.82,-0.14 1.33,-0.14 0.44,0 0.83,0.02 1.17,0.06 0.34,0.04 0.64,0.08 0.9,0.13l0 1.16c-0.4,-0.11 -0.78,-0.18 -1.13,-0.23 -0.35,-0.04 -0.69,-0.07 -1.04,-0.07 -0.34,0 -0.61,0.06 -0.82,0.16 -0.21,0.11 -0.31,0.26 -0.31,0.44 0,0.09 0.02,0.17 0.06,0.24 0.04,0.07 0.12,0.14 0.24,0.21 0.12,0.06 0.29,0.13 0.51,0.21 0.22,0.07 0.5,0.15 0.86,0.23 0.4,0.1 0.74,0.21 1.02,0.32 0.27,0.11 0.49,0.23 0.66,0.38 0.17,0.14 0.29,0.3 0.36,0.48 0.07,0.18 0.11,0.38 0.11,0.61z"/>
  <path id="12" class="fil1" d="M114.85 42.31c-0.31,0.06 -0.61,0.1 -0.92,0.14 -0.31,0.03 -0.6,0.05 -0.87,0.05 -0.46,0 -0.85,-0.04 -1.18,-0.12 -0.33,-0.08 -0.61,-0.21 -0.83,-0.38 -0.21,-0.17 -0.37,-0.38 -0.48,-0.64 -0.1,-0.26 -0.15,-0.57 -0.15,-0.93l0 -2.9 -1.87 0 0 -1.12 1.87 0 0 -1.53 1.71 -0.38 0 1.91 2.72 0 0 1.12 -2.72 0 0 2.8c0,0.34 0.09,0.59 0.28,0.77 0.18,0.17 0.49,0.26 0.92,0.26 0.27,0 0.54,-0.02 0.8,-0.06 0.26,-0.04 0.5,-0.08 0.72,-0.13l0 1.14z"/>
  <polygon id="13" class="fil1" points="126.57,35.93 126.57,38.04 129.96,38.04 129.96,39.23 126.57,39.23 126.57,42.37 124.86,42.37 124.86,34.7 130.16,34.7 130.16,35.93 "/>
  <polygon id="14" class="fil1" points="132.04,42.37 132.04,41.28 136.14,36.01 132.16,36.01 132.16,34.7 138.28,34.7 138.28,35.87 134.15,41.06 138.33,41.06 138.33,42.37 "/>
  <path id="15" class="fil1" d="M145.94 42.07c-0.4,0.14 -0.79,0.24 -1.16,0.31 -0.37,0.06 -0.76,0.1 -1.16,0.1 -0.65,0 -1.22,-0.09 -1.71,-0.25 -0.5,-0.16 -0.92,-0.4 -1.26,-0.72 -0.34,-0.32 -0.6,-0.72 -0.77,-1.2 -0.18,-0.47 -0.27,-1.02 -0.27,-1.65 0,-0.65 0.1,-1.22 0.29,-1.73 0.19,-0.5 0.46,-0.92 0.82,-1.27 0.36,-0.34 0.79,-0.61 1.3,-0.79 0.51,-0.18 1.09,-0.27 1.72,-0.27 0.21,0 0.4,0 0.58,0.01 0.18,0.01 0.36,0.02 0.53,0.04 0.18,0.02 0.35,0.05 0.53,0.09 0.18,0.03 0.36,0.08 0.56,0.13l0 1.43c-0.39,-0.15 -0.76,-0.26 -1.12,-0.33 -0.35,-0.07 -0.67,-0.1 -0.96,-0.1 -0.42,0 -0.78,0.07 -1.09,0.2 -0.3,0.13 -0.55,0.31 -0.74,0.55 -0.19,0.23 -0.33,0.52 -0.43,0.84 -0.09,0.33 -0.13,0.69 -0.13,1.08 0,0.41 0.04,0.78 0.14,1.11 0.09,0.33 0.24,0.6 0.43,0.83 0.2,0.23 0.45,0.4 0.76,0.52 0.3,0.12 0.67,0.18 1.09,0.18 0.14,0 0.31,-0.01 0.49,-0.04 0.17,-0.03 0.35,-0.06 0.53,-0.1 0.18,-0.04 0.36,-0.09 0.54,-0.15 0.17,-0.05 0.34,-0.11 0.49,-0.17l0 1.35z"/>
  <path id="16" class="fil1" d="M154 39.34c0,0.47 -0.08,0.9 -0.24,1.29 -0.15,0.38 -0.37,0.72 -0.66,1 -0.3,0.27 -0.66,0.49 -1.08,0.64 -0.43,0.15 -0.91,0.23 -1.45,0.23 -0.52,0 -0.98,-0.06 -1.39,-0.2 -0.41,-0.12 -0.75,-0.32 -1.03,-0.57 -0.29,-0.26 -0.5,-0.58 -0.66,-0.96 -0.15,-0.39 -0.22,-0.84 -0.22,-1.35 0,-0.47 0.08,-0.9 0.23,-1.29 0.16,-0.39 0.39,-0.72 0.68,-0.99 0.3,-0.27 0.66,-0.49 1.08,-0.64 0.43,-0.15 0.91,-0.22 1.44,-0.22 0.52,0 0.99,0.06 1.39,0.19 0.41,0.14 0.75,0.33 1.04,0.59 0.28,0.25 0.5,0.57 0.65,0.96 0.15,0.38 0.22,0.82 0.22,1.32zm-1.74 0.03c0,-0.61 -0.14,-1.08 -0.41,-1.39 -0.27,-0.31 -0.67,-0.46 -1.2,-0.46 -0.29,0 -0.54,0.04 -0.75,0.14 -0.21,0.1 -0.37,0.23 -0.51,0.4 -0.13,0.17 -0.22,0.37 -0.29,0.6 -0.06,0.23 -0.09,0.47 -0.09,0.73 0,0.62 0.15,1.09 0.44,1.4 0.29,0.31 0.69,0.47 1.2,0.47 0.28,0 0.52,-0.05 0.72,-0.14 0.21,-0.1 0.38,-0.23 0.5,-0.4 0.13,-0.17 0.23,-0.37 0.29,-0.6 0.06,-0.23 0.1,-0.48 0.1,-0.75z"/>
 </g>
</svg>
